<svg id="Layer_1" data-name="Layer 1" xmlns="http://www.w3.org/2000/svg" xmlns:xlink="http://www.w3.org/1999/xlink" viewBox="0 0 1725.21 500"><defs><style>.cls-1{fill:url(#linear-gradient);}.cls-2{fill:url(#linear-gradient-2);}.cls-3{fill:url(#linear-gradient-3);}.cls-4{fill:url(#linear-gradient-4);}.cls-5{fill:url(#linear-gradient-5);}.cls-6{fill:url(#linear-gradient-6);}.cls-7{fill:#585cc5;}</style><linearGradient id="linear-gradient" x1="102.18" y1="195.21" x2="402.41" y2="195.21" gradientUnits="userSpaceOnUse"><stop offset="0" stop-color="#23abd7"/><stop offset="1" stop-color="#4a3d9c"/></linearGradient><linearGradient id="linear-gradient-2" x1="102.18" y1="135.49" x2="402.41" y2="135.49" xlink:href="#linear-gradient"/><linearGradient id="linear-gradient-3" x1="102.18" y1="288.51" x2="402.41" y2="288.51" xlink:href="#linear-gradient"/><linearGradient id="linear-gradient-4" x1="102.18" y1="308.31" x2="402.41" y2="308.31" xlink:href="#linear-gradient"/><linearGradient id="linear-gradient-5" x1="102.18" y1="269.2" x2="402.41" y2="269.2" xlink:href="#linear-gradient"/><linearGradient id="linear-gradient-6" x1="102.18" y1="407.24" x2="402.41" y2="407.24" xlink:href="#linear-gradient"/></defs><path class="cls-1" d="M396.47,186.46c3.16-25.32-19.5-36.55-19.5-36.55l-127.39,76L230.2,214l126.2-75.56-33.63-20.17L169.69,209.65v17.41l81.72,45.1Z"/><path class="cls-2" d="M265,87.24a32.4,32.4,0,0,0-30.64.18l-64.62,35.2V187.5l133.7-79.91Z"/><polygon class="cls-3" points="169.69 291.67 234.16 327.54 234.16 285.87 169.69 249.48 169.69 291.67"/><path class="cls-4" d="M251.41,407.23A55,55,0,0,0,272,401.06c10.22-5.61,106-60.73,106-60.73a37,37,0,0,0,18.78-32.2V209.39L251.41,295.31ZM286,317.85l69.23-37.58v21.16L286,340.6Z"/><path class="cls-5" d="M150.29,134.9l-25.13,13.41a41.42,41.42,0,0,0-21.93,36.54V306.27a36.94,36.94,0,0,0,18.4,32L234.16,403.5V350.22l-83.87-48Z"/><path class="cls-6" d="M251.41,407.25v0l-.31,0Z"/><path class="cls-7" d="M539.47,337.14l-55.1-101.65c.78,14.55,1,29.87,1,41.13v60.52H458.57V203.28h35.5l56.26,103.6c-.77-14.36-1-30.65-1-42.1v-61.5h26.58l.2,133.86Z"/><path class="cls-7" d="M694.28,292.52H621c1.74,21.73,11.44,28.52,23.86,28.52,11.45,0,19.79-6.4,21.53-17.46h26.78c-5.24,24.06-24.64,36.28-48.89,36.28-28.33,0-50.25-17.65-50.25-53.93,0-31.62,20.76-54.71,52.38-54.71s48.31,24.06,48.31,52.19A79.15,79.15,0,0,1,694.28,292.52Zm-72.56-17.46h45.4c-1.75-16.29-9.12-25-21.92-25C632.78,250,624.05,258,621.72,275.06Z"/><path class="cls-7" d="M813.2,285.54c0,31.23-19.21,54.32-53.54,54.32s-53.55-23.09-53.55-54.32c0-31.43,19.21-54.32,53.55-54.32S813.2,254.11,813.2,285.54Zm-27.74,0c0-22.31-9.7-35.5-25.8-35.5s-25.81,13.19-25.81,35.5c0,22.12,9.7,35.5,25.81,35.5S785.46,307.66,785.46,285.54Z"/><path class="cls-7" d="M873.33,337.14V203.28h26.78V337.14Z"/><path class="cls-7" d="M1021.94,278.94v58.2H995.16V282.63c0-4.27,0-9.12-.38-14.36C994,257.41,988,250,975,250s-23.28,11.25-23.28,40v47.14H924.94V233.94h26.77v16.68l7.95-12.22c7.37-5.24,14.94-7.18,24.83-7.18,21.93,0,34.54,10.86,36.67,28.91A164.4,164.4,0,0,1,1021.94,278.94Z"/><path class="cls-7" d="M1074.9,229.67v5H1096v17.66H1074.9v84.77h-26.78V252.37h-11V234.71h11v-4.27c0-3.49,0-8.34.39-11.83,1.55-17.46,13-27.74,37.44-27.74a54.86,54.86,0,0,1,11.84,1.36v18.62c-12.61-2.33-21.54,1.16-22.51,9.89A70.21,70.21,0,0,0,1074.9,229.67Z"/><path class="cls-7" d="M1211.08,285.54c0,31.23-19.2,54.32-53.54,54.32S1104,316.77,1104,285.54c0-31.43,19.2-54.32,53.54-54.32S1211.08,254.11,1211.08,285.54Zm-27.74,0c0-22.31-9.7-35.5-25.8-35.5s-25.8,13.19-25.8,35.5c0,22.12,9.7,35.5,25.8,35.5S1183.34,307.66,1183.34,285.54Z"/><path class="cls-7" d="M1260.55,300.09c0,3.49,0,6.4.2,9.12.77,10.09,4.46,12.41,19.4,11.25v17.46a108.31,108.31,0,0,1-17.66,1.36c-20,0-27.16-6.6-28.32-21.15-.39-4.65-.39-9.12-.39-14.94V252.37h-15.13V234.71h15.13V209.3h26.77v25.41h21.34v17.66h-21.34Z"/><path class="cls-7" d="M1390.15,292.52h-73.34c1.75,21.73,11.45,28.52,23.87,28.52,11.44,0,19.78-6.4,21.53-17.46H1389c-5.24,24.06-24.64,36.28-48.89,36.28-28.32,0-50.24-17.65-50.24-53.93,0-31.62,20.76-54.71,52.38-54.71s48.3,24.06,48.3,52.19A81.22,81.22,0,0,1,1390.15,292.52Zm-72.56-17.46H1363c-1.74-16.29-9.11-25-21.92-25C1328.65,250,1319.92,258,1317.59,275.06Z"/><path class="cls-7" d="M1500.72,271.18h-26.38C1471.82,256.25,1464.06,250,1453,250c-13.58,0-23.28,11.06-23.28,34.53,0,25.61,9.7,36.47,23.08,36.47,10.48,0,18.24-6.59,21-19.59h26.77c-4.46,25.41-23.48,38.41-49.28,38.41-28.13,0-49.27-17.85-49.27-53.54,0-35.31,23.28-55.1,51.6-55.1C1481.52,231.22,1498.78,248.29,1500.72,271.18Z"/><path class="cls-7" d="M1614.79,278.94v58.2H1588V282.63c0-4.27,0-9.12-.39-14.36-.77-10.86-6.79-18.23-19.79-18.23-13,.19-23.28,11.25-23.28,40v47.14h-26.77V193.58h26.77v57l8-12.22c7.37-5.24,14.94-7.18,24.83-7.18,21.92,0,34.53,10.86,36.67,28.91A164.78,164.78,0,0,1,1614.79,278.94Z"/></svg>